<?xml version="1.0" encoding="UTF-8" standalone="no"?>
<!-- Created with Inkscape (http://www.inkscape.org/) -->

<svg
   xmlns:dc="http://purl.org/dc/elements/1.1/"
   xmlns:cc="http://creativecommons.org/ns#"
   xmlns:rdf="http://www.w3.org/1999/02/22-rdf-syntax-ns#"
   xmlns:svg="http://www.w3.org/2000/svg"
   xmlns="http://www.w3.org/2000/svg"
   xmlns:sodipodi="http://sodipodi.sourceforge.net/DTD/sodipodi-0.dtd"
   xmlns:inkscape="http://www.inkscape.org/namespaces/inkscape"
   width="1200mm"
   height="610mm"
   viewBox="0 0 1200 610"
   version="1.1"
   id="svg8"
   inkscape:version="0.92.4 (unknown)"
   sodipodi:docname="floorsvg.svg">
  <defs
     id="defs2" />
  <sodipodi:namedview
     id="base"
     pagecolor="#ffffff"
     bordercolor="#666666"
     borderopacity="1.0"
     inkscape:pageopacity="0.0"
     inkscape:pageshadow="2"
     inkscape:zoom="1.979899"
     inkscape:cx="458.76023"
     inkscape:cy="2090.3322"
     inkscape:document-units="mm"
     inkscape:current-layer="layer1"
     showgrid="false"
     inkscape:window-width="2560"
     inkscape:window-height="1378"
     inkscape:window-x="0"
     inkscape:window-y="34"
     inkscape:window-maximized="1" />
  <metadata
     id="metadata5">
    <rdf:RDF>
      <cc:Work
         rdf:about="">
        <dc:format>image/svg+xml</dc:format>
        <dc:type
           rdf:resource="http://purl.org/dc/dcmitype/StillImage" />
        <dc:title></dc:title>
      </cc:Work>
    </rdf:RDF>
  </metadata>
  <g
     inkscape:label="Layer 1"
     inkscape:groupmode="layer"
     id="layer1"
     transform="translate(0,313)">
    <g
       id="g1469"
       transform="translate(-6.5481034,-4.1426777)">
      <path
         id="path857"
         style="fill:none;stroke:#ff0000;stroke-width:0.26458332"
         d="m 46.459678,-236.79007 v -3.00001 h -19 v 3.00001 z"
         inkscape:connector-curvature="0" />
      <path
         id="path859"
         style="fill:none;stroke:#ff0000;stroke-width:0.26458332"
         d="m 62.213688,-268.17262 a 1.5,1.5 0 1 0 -3,0 1.5,1.5 0 1 0 3,0 z"
         inkscape:connector-curvature="0" />
      <path
         id="path861"
         style="fill:none;stroke:#ff0000;stroke-width:0.26458332"
         d="m 13.357738,-268.17262 a 1.5,1.5 0 1 0 -3,0 1.5,1.5 0 1 0 3,0 z"
         inkscape:connector-curvature="0" />
      <path
         id="path863"
         style="fill:none;stroke:#000000;stroke-width:0.26458332"
         d="m 57.713688,-277.47262 h 6 v 41.79999 a 34.999999,34.999999 0 0 1 -54.8559499,0 v -41.79999 h 5.9999999 v -8.39999 H 8.8577381 v -7.8 a 34.999999,34.999999 0 0 1 54.8559499,0 v 7.8 h -6 z"
         inkscape:connector-curvature="0" />
    </g>
  </g>
</svg>
